<svg width="22" height="22" viewBox="0 0 22 22" fill="none" xmlns="http://www.w3.org/2000/svg">
<path d="M6.40183 1.22807C4.75582 2.00262 3.33213 3.1804 2.26286 4.65212L2.29978 4.70187C3.23243 5.95883 4.53231 6.89523 6.01994 7.38179C6.62942 6.54291 7.44092 5.87158 8.37915 5.43008C9.31737 4.98859 10.3519 4.79124 11.3868 4.85635L11.2885 4.26121C11.0988 3.11166 11.1719 1.93407 11.5023 0.816812L11.6784 0.221509C9.86283 0.107284 8.04784 0.453512 6.40183 1.22807Z" fill="black"/>
<path d="M14.3375 0.729046C16.0676 1.29119 17.6277 2.28125 18.873 3.60735C20.1182 4.93345 21.0084 6.55262 21.4608 8.31461L20.8427 8.33082C19.6757 8.36143 18.5308 8.65652 17.4944 9.19386L16.9627 9.46952C16.7048 8.46519 16.1974 7.54226 15.4876 6.78638C14.7778 6.03051 13.8886 5.46618 12.9024 5.14575C12.9095 3.5741 13.4024 2.04311 14.3136 0.76254L14.3375 0.729046Z" fill="black"/>
<path d="M0.285359 12.3541C0.513358 14.1589 1.19355 15.8769 2.26281 17.3486L2.30686 17.3339C3.79671 16.837 5.09459 15.8879 6.01989 14.6189C5.41041 13.78 5.0227 12.8008 4.89274 11.7721C4.76278 10.7433 4.89478 9.69844 5.27649 8.73435L4.67668 8.64305C3.52778 8.46817 2.43325 8.03598 1.47482 7.37876L0.958612 7.02478C0.288941 8.71617 0.0573605 10.5493 0.285359 12.3541Z" fill="black"/>
<path d="M21.8006 11.0002C21.8006 12.8194 21.341 14.609 20.4647 16.2032C19.5883 17.7973 18.3234 19.1442 16.7875 20.119L16.5737 19.5197C16.1853 18.4311 15.5572 17.4437 14.7359 16.6305L14.2991 16.1979C15.1746 15.6423 15.8956 14.8746 16.3951 13.9659C16.8946 13.0573 17.1566 12.0371 17.1566 11.0002C18.6518 10.5185 20.2598 10.5138 21.7578 10.9867L21.8006 11.0002Z" fill="black"/>
<path d="M14.3377 21.2714C12.6076 21.8336 10.7635 21.9496 8.97656 21.6087C7.18964 21.2678 5.51777 20.4811 4.1161 19.3215L4.60119 18.95C5.53268 18.2367 6.28919 17.3203 6.81315 16.2705L7.0763 15.7433C7.87525 16.4042 8.82821 16.8527 9.84676 17.047C10.8653 17.2413 11.9164 17.1751 12.9026 16.8547C13.8228 18.1246 14.3243 19.6498 14.3372 21.218L14.3377 21.2714Z" fill="black"/>
</svg>
