<svg width="24" height="25" viewBox="0 0 24 25" fill="none" xmlns="http://www.w3.org/2000/svg">
<path d="M2.70981 8.79249C2.63207 8.89959 2.58168 9.02783 2.56892 9.16696C2.20048 10.2095 2 11.3313 2 12.5C2 13.6722 2.20169 14.7973 2.57227 15.8425C2.58758 15.9585 2.62915 16.0663 2.69082 16.1596C4.15147 19.8722 7.76885 22.5 12 22.5C16.179 22.5 19.7592 19.9366 21.2542 16.2964C21.4024 16.1581 21.495 15.9611 21.495 15.7424C21.495 15.7145 21.4935 15.6869 21.4905 15.6597C21.821 14.6666 22 13.6042 22 12.5C22 11.3938 21.8204 10.3296 21.4887 9.3349C21.4929 9.30287 21.495 9.27022 21.495 9.23707C21.495 9.0118 21.3967 8.80949 21.2406 8.67073C19.7377 5.04799 16.1664 2.5 12 2.5C7.78707 2.5 4.18263 5.10522 2.70981 8.79249ZM10.0023 4.25166C9.20374 5.20829 8.54654 6.2778 8.05325 7.42781C7.90517 7.77301 7.77252 8.12392 7.65553 8.47949H4.52631C5.65407 6.3875 7.63455 4.82308 10.0023 4.25166ZM7.2573 9.99464C7.09345 10.8192 7.01031 11.6599 7.01031 12.5048C7.01031 13.3395 7.09144 14.17 7.25135 14.9849H3.88481C3.64447 14.199 3.51515 13.3646 3.51515 12.5C3.51515 11.6279 3.64673 10.7865 3.89111 9.99464H7.2573ZM8.79938 14.9849C8.61778 14.1728 8.52546 13.3412 8.52546 12.5048C8.52546 11.6581 8.62008 10.8163 8.80616 9.99464H15.3654C15.5515 10.8163 15.6462 11.6581 15.6462 12.5048C15.6462 13.3412 15.5538 14.1728 15.3722 14.9849H8.79938ZM7.64566 16.5C7.76504 16.8659 7.90099 17.2269 8.05325 17.5818C8.54447 18.727 9.19823 19.7924 9.99225 20.7459C7.62122 20.1706 5.63956 18.5993 4.5153 16.5H7.64566ZM14.2257 20.6899C14.9988 19.7507 15.6367 18.7046 16.1183 17.5818C16.2706 17.2269 16.4066 16.8659 16.5259 16.5H19.4847C18.3951 18.5347 16.5 20.0733 14.2257 20.6899ZM14.9207 16.5C14.8595 16.6628 14.7946 16.8244 14.7259 16.9845C14.1309 18.3717 13.2656 19.6261 12.1808 20.6748C12.1624 20.6811 12.1428 20.6839 12.1232 20.6828C12.0966 20.6813 12.07 20.6812 12.0434 20.6825C12.0256 20.6834 12.0079 20.6809 11.9912 20.6753C10.9063 19.6265 10.0408 18.3719 9.4457 16.9845C9.377 16.8244 9.31206 16.6628 9.25092 16.5H14.9207ZM16.9203 14.9849C17.0802 14.17 17.1613 13.3395 17.1613 12.5048C17.1613 11.6599 17.0782 10.8192 16.9143 9.99464H20.1089C20.3533 10.7865 20.4848 11.6279 20.4848 12.5C20.4848 13.3646 20.3555 14.199 20.1152 14.9849H16.9203ZM16.5161 8.47949C16.3991 8.12392 16.2664 7.77301 16.1183 7.42781C15.6346 6.30005 14.9932 5.2497 14.2155 4.3073C16.4867 4.92 18.3807 6.45197 19.4737 8.47949H16.5161ZM14.9093 8.47949H9.26228C9.32009 8.32688 9.38124 8.17538 9.4457 8.0251C10.0408 6.63775 10.9063 5.38315 11.9912 4.33439C12.0079 4.32879 12.0255 4.3263 12.0434 4.32718C12.07 4.32849 12.0966 4.3284 12.1232 4.32691C12.1429 4.3258 12.1625 4.32856 12.1809 4.33487C13.2656 5.38353 14.1309 6.63796 14.7259 8.0251C14.7904 8.17538 14.8515 8.32688 14.9093 8.47949Z" fill="black"/>
</svg>
